<?xml version="1.0" standalone="no"?>
<!DOCTYPE svg PUBLIC "-//W3C//DTD SVG 20010904//EN"
 "http://www.w3.org/TR/2001/REC-SVG-20010904/DTD/svg10.dtd">
<svg version="1.0" xmlns="http://www.w3.org/2000/svg"
 width="30px" height="30px" viewBox="0 0 1280.000000 1280.000000"
 preserveAspectRatio="xMidYMid meet">
<g transform="translate(0.000000,1280.000000) scale(0.100000,-0.100000)"
fill="#d4641c" stroke="#d4641c">
<path d="M6205 12384 c-428 -95 -741 -481 -894 -1107 -113 -458 -128 -823 -91
-2190 l21 -799 -38 -32 c-21 -18 -139 -116 -262 -217 -124 -101 -358 -293
-520 -427 -163 -134 -413 -340 -556 -457 -143 -118 -382 -315 -531 -437 -149
-123 -419 -344 -599 -493 -181 -148 -462 -380 -624 -513 -163 -134 -389 -320
-504 -414 -234 -192 -294 -253 -342 -353 -65 -131 -66 -145 -63 -627 l3 -433
29 -60 c38 -77 114 -153 191 -191 56 -27 68 -29 175 -29 l115 0 465 212 c256
116 591 268 745 338 317 144 1364 618 1952 886 216 97 401 180 412 184 18 5
19 -5 25 -207 3 -117 11 -568 16 -1003 5 -434 12 -880 16 -990 l5 -200 -33
-31 c-18 -17 -132 -111 -252 -210 -257 -210 -577 -473 -727 -596 -131 -109
-186 -175 -249 -303 -84 -171 -85 -177 -85 -600 l0 -370 32 -67 c44 -94 109
-160 202 -206 73 -36 78 -37 185 -37 l111 0 925 259 c509 142 930 259 935 259
6 0 102 -26 215 -58 113 -31 291 -81 395 -110 395 -110 490 -137 860 -242
l380 -107 120 -1 c115 0 123 1 185 32 120 59 193 143 231 264 17 55 19 95 19
412 0 387 -6 440 -59 553 -63 134 -83 154 -526 519 -121 99 -298 245 -394 325
-97 80 -224 185 -283 233 -78 63 -108 94 -108 110 0 47 50 2275 53 2329 l2 56
275 -124 c151 -69 460 -209 685 -311 226 -102 532 -241 680 -308 149 -68 466
-211 705 -320 239 -108 620 -281 845 -383 l410 -187 115 0 c107 0 119 2 175
29 77 38 153 114 191 191 l29 60 3 427 c3 478 0 506 -64 628 -65 124 -45 106
-763 700 -97 80 -274 226 -395 325 -120 99 -316 261 -436 360 -120 99 -315
259 -433 356 -117 97 -321 265 -453 374 -131 109 -327 270 -434 358 -107 88
-231 191 -275 227 -200 166 -456 377 -614 505 l-172 140 6 145 c3 80 15 510
26 955 18 683 19 848 10 1055 -21 450 -74 765 -181 1075 -87 252 -203 448
-355 601 -129 130 -257 208 -415 255 -101 29 -341 36 -445 13z"/>
</g>
</svg>
